<?xml version="1.0" encoding="utf-8"?>
<!-- Generator: Adobe Illustrator 22.0.1, SVG Export Plug-In . SVG Version: 6.00 Build 0)  -->
<svg version="1.1" id="圖層_1" xmlns="http://www.w3.org/2000/svg" xmlns:xlink="http://www.w3.org/1999/xlink" x="0px" y="0px"
	 viewBox="0 0 1366 768" style="enable-background:new 0 0 1366 768;" xml:space="preserve">
<style type="text/css">
	.st0{fill:#06236D;}
	.st1{fill:none;stroke:#B2DBFF;stroke-width:3;stroke-linecap:round;stroke-miterlimit:10;}
	.st2{fill:#002C70;}
	.st3{fill:none;stroke:#002C70;stroke-linecap:round;stroke-miterlimit:10;}
</style>
<path class="st0" d="M473,204"/>
<g>
	<path class="st1" d="M574.5,181.5c0,10.7-4,10.7-4,21.3c0,10.7,4,10.7,4,21.3c0,10.7-4,10.7-4,21.3"/>
</g>
<g>
	<path class="st1" d="M581.5,170.5c0,10.7-4,10.7-4,21.3c0,10.7,4,10.7,4,21.3c0,10.7-4,10.7-4,21.3"/>
</g>
<g>
	<path class="st2" d="M555.2,171.2c0-0.1-0.2-0.3-0.4-0.9c-0.2-0.5-0.4-0.8-0.4-0.9c0-0.1,0.2-0.1,0.5-0.1c1.4,0.1,4,0.2,7.8,0.2
		c0.3,0,0.8,0,1.3,0c1.7,0,2.7,0,3.1,0c0.6-0.1,1-0.2,1.2-0.4c0.1-0.1,0.2-0.5,0.1-1c0-0.2,0-0.3,0-0.4c0,0,0-0.1,0-0.2
		c0-0.7,0-1.1-0.1-1.3c-0.1-0.2-0.4-0.4-0.9-0.4c-0.3,0-1.1,0-2.3,0c-0.1,0-0.2,0-0.2,0c-2.3,0-4,0.1-5.3,0.4c0,0-0.1,0-0.1,0
		c-0.5,0.1-0.7,0.1-0.8,0s-0.3-0.3-0.5-0.7c0-0.1,0-0.1-0.1-0.2c-0.2-0.5-0.3-0.8-0.3-0.8c0.1-0.1,0.4-0.1,0.9,0
		c0.8,0.1,2.5,0.1,5.1,0.1c2.6,0,3.9,0,4.1-0.1c0.3-0.2,0.5-0.8,0.5-1.6s-0.2-1.4-0.5-1.6c-0.2-0.1-1.6-0.2-4.1-0.1
		c-2.5,0-4.3,0.2-5.6,0.3c-0.1,0-0.2,0-0.3,0c-0.5,0.1-0.8,0.1-0.9,0c-0.1-0.1-0.2-0.3-0.4-0.7c0-0.1,0-0.1-0.1-0.1
		c-0.2-0.5-0.3-0.8-0.3-0.9c0.1-0.1,0.4-0.1,0.9,0c0.5,0.1,2.5,0.1,5.7,0.1c0.2,0,0.6,0,1,0c1.7,0,2.7,0,3.2,0
		c0.6-0.1,1-0.2,1.2-0.5c0.1-0.2,0.1-0.7,0-1.4c0-0.2,0-0.4,0-0.5c0-0.1,0-0.1,0-0.2c0-0.6,0-1,0-1c0.1-0.1,0.4,0,0.9,0.1
		c0.1,0,0.1,0,0.1,0c1.2,0.4,2,0.7,2.3,1c0.3,0.2,0.3,0.5,0,0.8c-0.3,0.3-0.4,0.6-0.4,0.9c0,0.3,0.1,0.6,0.4,0.8
		c0.1,0.1,1.3,0.1,3.6,0.1c2.2,0,3.4,0,3.6-0.1c0.2-0.1,0.6-0.6,1.3-1.6c0.3-0.5,0.6-0.8,0.8-0.8c0.2,0,0.5,0.3,1.1,0.8
		c1.5,1.2,2.1,2,1.8,2.5c-0.1,0.2-0.4,0.3-1,0.4c-0.5,0-2.3,0.1-5.3,0.1c-0.4,0-0.9,0-1.5,0c-1.8,0-3,0-3.5,0.1
		c-0.7,0.1-1.1,0.2-1.3,0.3c-0.1,0.1-0.2,0.5-0.1,1c0,0.2,0,0.3,0,0.4v0.1c0,0.6,0.1,1,0.1,1.1c0.1,0.2,0.4,0.4,0.8,0.4
		c0.3,0,1,0,2.2,0c0.1,0,0.2,0,0.2,0c0.2,0,0.4,0,0.7,0c1.2,0,1.9,0,2.2-0.1c0.3-0.1,0.6-0.4,1-1c0.1-0.1,0.1-0.2,0.2-0.2
		c0.4-0.6,0.7-0.9,0.8-0.9c0.2,0,0.5,0.1,1,0.6c1.5,1.2,2.1,2.1,1.9,2.5c-0.1,0.2-0.4,0.3-0.8,0.3c-0.5,0-2,0.1-4.6,0.1
		c-0.3,0-0.6,0-1.1,0c-1.7,0-2.7,0-3.2,0c-0.6,0.1-1,0.2-1.2,0.3c-0.1,0.1-0.2,0.4-0.2,0.9c0,0.1,0,0.2,0,0.3c0,0.1,0,0.2,0,0.3
		c0,0.7,0,1.1,0.1,1.3c0.1,0.2,0.5,0.4,1,0.4c0.4,0,1.4,0.1,2.8,0.1c0.3,0,0.6,0,0.8,0c0.3,0,0.6,0,1.1,0c1.8,0,3,0,3.3-0.1
		c0.4-0.1,0.7-0.4,1-0.9c0.1-0.1,0.1-0.2,0.2-0.3c0.5-0.8,0.8-1.2,1-1.2c0.3,0,0.9,0.4,1.7,1.3s1.3,1.5,1.3,1.8v0.1
		c0,0.2-0.1,0.3-0.4,0.3c-0.4,0.1-1.4,0.1-2.9,0.1c-1.1,0-3.8,0-8,0c-1,0-1.8,0-2.4,0c-6.8,0-10.9,0.1-12.2,0.1
		c-1.3,0-2.5,0.1-3.4,0.3h-0.1C555.7,171.2,555.3,171.2,555.2,171.2z M561.3,193.8c-0.2,0-0.4-0.1-0.4-0.2c-0.1-0.2-0.1-0.5-0.1-1.1
		c0-0.4,0.1-1.4,0.1-2.9c0.1-1,0.1-3.3,0.1-6.9c0-4.1-0.1-7.1-0.3-9.1c0-0.1,0-0.1,0-0.2c0-0.5,0-0.8,0.1-0.9c0.1,0,0.5,0.1,1.1,0.5
		c0.1,0.1,0.2,0.1,0.3,0.1c0.1,0.1,0.2,0.1,0.4,0.2c0.7,0.4,1.3,0.6,1.8,0.7c0.5,0.1,2,0.1,4.4,0.1c0.6,0,1,0,1.4,0
		c0.4,0,0.9,0,1.5,0c2.4,0,3.7,0,4.2-0.1c0.4-0.1,0.7-0.2,1-0.6c0-0.1,0.1-0.1,0.1-0.2c0.5-0.7,0.9-1,1.1-1c0.2,0,0.8,0.5,1.8,1.3
		c0.6,0.6,1,1,1,1.2c0.1,0.2-0.1,0.5-0.5,0.7c0,0-0.1,0.1-0.2,0.1c-0.2,0.1-0.4,0.3-0.5,0.5c-0.1,0.3-0.2,0.8-0.2,1.7
		c0,0.6,0,2.1,0,4.4c0,0.7,0,1.3,0,1.7c0,3.7,0,5.9-0.1,6.5c0,0.7-0.1,1.1-0.1,1.3c-0.2,0.6-0.6,1.1-1,1.4c-0.5,0.3-1.2,0.6-2.1,0.8
		c-0.4,0.1-0.6,0.1-0.7,0.1c-0.1,0-0.2-0.2-0.2-0.4c-0.1-0.7-0.5-1.3-1-1.7c-0.5-0.4-1.2-0.7-2.2-0.9c-0.6-0.2-0.9-0.4-0.7-0.6
		c0.1-0.1,0.6-0.1,1.6,0c1.3,0.1,2.1,0.1,2.5,0.1c0.5-0.1,0.8-0.3,1-0.6c0.1-0.3,0.1-0.9,0.1-1.8c0-0.2,0-0.4,0-0.6
		c0-0.7,0-1.1-0.1-1.2c-0.2-0.2-0.6-0.4-1.2-0.4c-0.5,0-1.6,0-3.4,0c-0.7,0-1.3,0-1.7,0c-0.5,0-1.1,0-1.9,0c-1.8,0-2.9,0-3.4,0.1
		c-0.6,0.1-1,0.4-1.2,0.8c-0.1,0.3-0.1,1-0.1,2.2c0,0.5,0,0.9,0,1.3c0.1,1.8,0.1,2.8,0,2.9c-0.1,0.3-0.5,0.5-1,0.8
		C562.1,193.8,561.7,193.9,561.3,193.8z M576.3,184.3c0.3-0.2,0.5-0.9,0.5-1.9c0-1.1-0.2-1.7-0.5-1.9c-0.2-0.1-2.3-0.2-6.2-0.1
		c-3.9,0-5.9,0.1-6.1,0.3c-0.3,0.3-0.4,0.9-0.3,1.9s0.2,1.6,0.5,1.8c0.2,0.1,2.2,0.2,6.1,0.2C574,184.5,576.1,184.4,576.3,184.3z
		 M576.3,179.1c0.3-0.2,0.5-0.8,0.5-1.9c0-1-0.2-1.7-0.5-1.9c-0.2-0.1-2.2-0.2-6.1-0.2c-3.9,0-5.9,0.1-6.1,0.2
		c-0.3,0.2-0.5,0.9-0.5,1.9c0,1,0.2,1.6,0.6,1.8c0.1,0.1,2.2,0.1,6,0.1C574.1,179.1,576.1,179.1,576.3,179.1z"/>
</g>
<g>
	<g>
		<path class="st2" d="M563.3,212.1c-0.2-0.1-0.4-0.1-0.5-0.2c-0.1-0.1-0.2-0.3-0.3-0.6c-0.3-0.6-0.7-1.2-1.2-2
			c-0.5-0.7-1-1.3-1.5-1.7c-0.7-0.6-0.6-0.8,0.4-0.7c2.4,0.4,3.9,1.3,4.5,2.7c0.3,0.7,0.3,1.4,0,2
			C564.4,212.1,564,212.3,563.3,212.1z M563.1,233c-0.4-0.1-0.7-0.4-0.9-0.9c-0.1-0.5-0.2-1.3,0-2.4c0.2-2.3,0.2-3.9-0.1-4.9
			s-0.9-1.6-1.8-1.8c-0.4-0.1-0.5-0.3-0.4-0.5c0.1-0.2,0.4-0.3,0.8-0.3c0.1,0,0.2,0,0.3,0c0.4,0,0.8-0.1,1-0.4
			c0.3-0.4,0.8-1.3,1.4-2.7c0.4-1,1.4-3.5,3-7.3c0.4-1,0.7-1.7,0.9-2.2c0.7-1.7,1.1-2.7,1.3-3.1c0.1-0.3,0.3-0.5,0.4-0.5
			c0.2,0,0.3,0.1,0.3,0.2c0,0.2-0.1,0.5-0.3,1.1c-0.1,0.4-0.4,1.5-1,3.1c0,0.2-0.1,0.3-0.1,0.4c-1.3,4.2-2.2,7.1-2.6,8.5
			c-0.5,1.8-0.8,3.2-0.8,4.1c0,0.7,0.1,1.6,0.4,2.7c0.6,2.3,0.7,4.2,0.4,5.5C565,232.8,564.2,233.3,563.1,233z M588.3,214.5
			c-0.3-0.1-0.5-0.2-0.6-0.3s-0.3-0.4-0.5-0.9c-0.5-1-0.8-1.6-1-1.8c-0.3-0.3-0.6-0.5-1.1-0.5c-0.3,0-1,0.1-2.1,0.3
			c-1.8,0.4-3.7,0.7-5.8,1.1c-0.9,0.2-1.6,0.3-2.1,0.4c-1.8,0.3-2.8,0.5-3.3,0.6c-0.4,0.1-0.8,0.3-1,0.5c-0.2,0.2-0.4,0.3-0.5,0.2
			c-0.1-0.1-0.3-0.7-0.7-1.7c0-0.1-0.1-0.3-0.2-0.5c-0.2-0.7-0.3-1.1-0.3-1.2s0.2-0.2,0.5-0.2c0.1,0,0.1,0,0.2,0
			c1.6,0,2.6-0.1,3.1-0.1c0.6-0.1,1.1-0.2,1.3-0.5c0.2-0.2,0.4-0.6,0.6-1.2c0.6-1.7,1-2.9,1.1-3.4c0.1-0.6,0.1-1-0.1-1.1
			c-0.2-0.2-1-0.2-2.3-0.2c-1.3,0.1-2.5,0.2-3.6,0.4c-0.3,0.1-0.6,0.1-0.6,0c-0.1,0-0.2-0.2-0.3-0.4c-0.2-0.4-0.4-0.6-0.5-0.7
			c-0.1-0.1-0.3,0.1-0.6,0.3c-0.4,0.5-0.8,0.7-1.3,0.7c-0.4-0.1-0.8-0.4-1-0.9c-0.5-1.2-1.4-2.4-2.6-3.7c-0.4-0.4-0.6-0.6-0.7-0.7
			c-0.1-0.1-0.1-0.2,0-0.2c0.1-0.2,0.7-0.1,1.7,0.2c1,0.3,1.8,0.6,2.3,0.9c0.8,0.5,1.5,1.3,1.9,2.4c0.1,0.3,0.5,0.5,1,0.5
			c0.6,0.1,2,0.1,4.2,0.1c0.1,0,0.3,0,0.6,0c1.3,0,2.1,0,2.5,0c0.5-0.1,0.8-0.4,0.9-0.8c0.1-0.3,0.1-1.1,0-2.2c0-0.3,0-0.4,0-0.6
			c0-0.1,0-0.1,0-0.2c0-0.5,0-0.8,0-0.9c0-0.1,0.2-0.1,0.6,0l0,0c1.4,0.4,2.3,0.7,2.7,1c0.4,0.2,0.4,0.5,0.1,0.8
			c-0.2,0.2-0.4,0.6-0.5,1c-0.1,0.4-0.1,0.8,0,1.2l0,0.1c0.1,0.3,0.2,0.5,0.4,0.6c0.2,0.1,1,0.1,2.3,0.1c0.2,0,0.3,0,0.4,0
			c0.2,0,0.5,0,0.9,0c1.1,0,1.8-0.1,2.1-0.2c0.3-0.1,0.6-0.5,1-1.1c0.1-0.2,0.2-0.3,0.3-0.4c0.3-0.5,0.6-0.7,0.8-0.7
			c0.1,0,0.5,0.2,1,0.7c1.4,1.2,2.1,2,1.9,2.4c-0.1,0.2-0.4,0.3-0.8,0.4c-0.5,0-2.1,0.1-4.8,0.1c-2.7,0-4.4,0-4.8,0.1
			c-0.5,0-0.8,0.2-1.1,0.4c-0.4,0.4-1.4,1.9-3,4.4c-0.3,0.5-0.5,0.9-0.4,1c0.1,0.2,0.5,0.3,1.2,0.3c0.5,0,1.7,0,3.6-0.1
			c1.5-0.1,2.4-0.2,2.8-0.3c0.5-0.1,0.6-0.4,0.4-0.8c-0.1-0.3-0.7-0.9-1.6-1.9c-0.6-0.6-0.9-1-0.8-1.1c0.1-0.1,0.5,0,1.4,0.4
			c1.8,0.8,3.4,1.7,4.5,2.8c1.2,1.1,1.8,2.2,2,3.3c0.1,0.6,0,1.2-0.3,1.6C589.1,214.4,588.7,214.6,588.3,214.5z M566.3,233.1
			c-0.1-0.2,0-0.4,0.4-0.8c1.9-1.5,3.2-3.6,4.1-6.5c0.8-2.9,1.1-6.2,0.8-10c0-0.1,0-0.1,0-0.3c0-0.4,0-0.6,0.1-0.7
			c0.1,0,0.4,0,0.8,0.2c0.1,0.1,0.3,0.1,0.3,0.1c1,0.3,1.7,0.6,1.9,0.8c0.2,0.2,0.2,0.4,0,0.7c-0.2,0.2-0.4,0.4-0.4,0.7
			c-0.1,0.3-0.1,0.7-0.1,1.3c0,3.6-0.6,6.6-1.7,8.8c-1.1,2.3-2.9,4-5.3,5.3C566.7,233.1,566.4,233.2,566.3,233.1z M577.5,231.2
			c-0.1-0.1-0.2-0.2-0.2-0.3c0-0.1,0-0.4,0-0.8c0-0.2,0-0.7,0-1.4c0-0.6,0.1-1,0.1-1.3c0.1-1.7,0.1-3.6,0-5.9c0-2.4-0.1-4.2-0.3-5.6
			c0-0.1,0-0.1,0-0.2c0-0.5,0-0.8,0.1-0.9c0.1-0.1,0.4,0,1,0.2c0.1,0,0.1,0,0.2,0c1.2,0.4,1.9,0.6,2.2,0.9c0.3,0.2,0.3,0.5-0.1,0.8
			c-0.5,0.5-0.6,4.3-0.3,11.4c0,1.2,0.1,1.9,0,2.1s-0.2,0.4-0.4,0.6c-0.4,0.3-0.8,0.5-1.3,0.6C578,231.4,577.7,231.4,577.5,231.2z
			 M585.4,232.3c-0.6-0.1-1-0.2-1.2-0.4c-0.2-0.3-0.3-0.8-0.4-1.7c0-0.6-0.1-2.1-0.1-4.4c0-5.3-0.1-8.9-0.4-10.9
			c0-0.3,0-0.4,0.1-0.4c0.1,0,0.5,0.1,1.2,0.3c1.1,0.3,1.8,0.6,2.1,0.8c0.3,0.2,0.3,0.5,0.1,0.7c-0.2,0.3-0.4,0.7-0.4,1.2
			c0,0.6-0.1,2.4-0.1,5.5c0,3,0.1,4.7,0.1,5.2c0,0.5,0.1,0.8,0.3,1c0.2,0.2,0.5,0.2,1,0.2c0.5,0,0.9-0.1,1.1-0.2
			c0.3-0.2,0.5-0.4,0.6-0.8c0.1-0.4,0.3-1.4,0.6-3.1c0.2-1.1,0.3-1.7,0.4-1.9c0.1-0.1,0.1-0.1,0.2,0c0.1,0.1,0.1,0.2,0.1,0.3
			c0,0,0,0.1,0,0.2c0,2.4,0.1,3.9,0.1,4.3c0,0.5,0.2,0.9,0.4,1.1c0.3,0.4,0.5,0.8,0.3,1.3c-0.1,0.5-0.4,0.8-0.9,1.1
			c-0.4,0.2-1.2,0.3-2.5,0.4C587.1,232.4,586.1,232.4,585.4,232.3z"/>
	</g>
</g>
<path class="st3" d="M581.5,170.5"/>
<g>
	<path class="st1" d="M589.5,166.5c0,11.7-4,11.7-4,23.3c0,11.7,4,11.7,4,23.3c0,11.7-4,11.7-4,23.3"/>
</g>
<g>
</g>
<g>
</g>
<g>
</g>
<g>
</g>
<g>
</g>
<g>
</g>
<g>
</g>
<g>
</g>
<g>
</g>
<g>
</g>
<g>
</g>
<g>
</g>
<g>
</g>
<g>
</g>
<g>
</g>
</svg>
